# xmcd
#
# Track frame offsets: 
#        150
#        19027
#        36850
#        52335
#        68315
#        84682
#        105840
#        125927
#        141227
#        161527
#
# Disc length: 2380 seconds
#
# Revision: 8
# Processed by: cddbd v1.5.2PL0 Copyright (c) Steve Scherf et al.
# Submitted via: ExactAudioCopy v0.95b4
#
DISCID=84094a0a
DTITLE=George Thorogood and The Destroyers - Boogie People
DYEAR=1991
DGENRE=Blues
TTITLE0=If You Don't Start Drinkin' (I'm Gonna Leave)
TTITLE1=Long Distance Lover
TTITLE2=Mad Man Blues
TTITLE3=Boogie People
TTITLE4=Can't Be Satisfied
TTITLE5=No Place To Go
TTITLE6=Six Days On The Road
TTITLE7=Born In Chicago
TTITLE8=Oklahoma Sweetheart
TTITLE9=Hello Little Girl
EXTD=YEAR: 1994 ID3G:   0
EXTT0=
EXTT1=
EXTT2=
EXTT3=
EXTT4=
EXTT5=
EXTT6=
EXTT7=
EXTT8=
EXTT9=
PLAYORDER=
